G04 #@! TF.GenerationSoftware,KiCad,Pcbnew,(6.0.5)*
G04 #@! TF.CreationDate,2022-06-03T15:55:02+02:00*
G04 #@! TF.ProjectId,ruche,72756368-652e-46b6-9963-61645f706362,rev?*
G04 #@! TF.SameCoordinates,Original*
G04 #@! TF.FileFunction,Soldermask,Top*
G04 #@! TF.FilePolarity,Negative*
%FSLAX46Y46*%
G04 Gerber Fmt 4.6, Leading zero omitted, Abs format (unit mm)*
G04 Created by KiCad (PCBNEW (6.0.5)) date 2022-06-03 15:55:02*
%MOMM*%
%LPD*%
G01*
G04 APERTURE LIST*
G04 Aperture macros list*
%AMRoundRect*
0 Rectangle with rounded corners*
0 $1 Rounding radius*
0 $2 $3 $4 $5 $6 $7 $8 $9 X,Y pos of 4 corners*
0 Add a 4 corners polygon primitive as box body*
4,1,4,$2,$3,$4,$5,$6,$7,$8,$9,$2,$3,0*
0 Add four circle primitives for the rounded corners*
1,1,$1+$1,$2,$3*
1,1,$1+$1,$4,$5*
1,1,$1+$1,$6,$7*
1,1,$1+$1,$8,$9*
0 Add four rect primitives between the rounded corners*
20,1,$1+$1,$2,$3,$4,$5,0*
20,1,$1+$1,$4,$5,$6,$7,0*
20,1,$1+$1,$6,$7,$8,$9,0*
20,1,$1+$1,$8,$9,$2,$3,0*%
G04 Aperture macros list end*
%ADD10C,3.000000*%
%ADD11RoundRect,0.250000X-0.550000X1.500000X-0.550000X-1.500000X0.550000X-1.500000X0.550000X1.500000X0*%
%ADD12RoundRect,0.225000X-0.250000X0.225000X-0.250000X-0.225000X0.250000X-0.225000X0.250000X0.225000X0*%
%ADD13RoundRect,0.250000X-0.475000X0.250000X-0.475000X-0.250000X0.475000X-0.250000X0.475000X0.250000X0*%
%ADD14RoundRect,0.225000X-0.225000X-0.250000X0.225000X-0.250000X0.225000X0.250000X-0.225000X0.250000X0*%
%ADD15RoundRect,0.250000X0.475000X-0.250000X0.475000X0.250000X-0.475000X0.250000X-0.475000X-0.250000X0*%
%ADD16RoundRect,0.250000X0.550000X-1.250000X0.550000X1.250000X-0.550000X1.250000X-0.550000X-1.250000X0*%
%ADD17RoundRect,0.212500X-0.400000X-0.212500X0.400000X-0.212500X0.400000X0.212500X-0.400000X0.212500X0*%
%ADD18R,1.240000X1.120000*%
%ADD19R,3.200000X2.250000*%
%ADD20R,0.650000X1.525000*%
%ADD21R,2.175000X2.175000*%
%ADD22C,2.175000*%
%ADD23RoundRect,0.250000X-0.625000X0.350000X-0.625000X-0.350000X0.625000X-0.350000X0.625000X0.350000X0*%
%ADD24O,1.750000X1.200000*%
%ADD25RoundRect,0.250000X0.625000X-0.350000X0.625000X0.350000X-0.625000X0.350000X-0.625000X-0.350000X0*%
%ADD26R,3.650000X3.750000*%
%ADD27R,0.800000X0.900000*%
%ADD28RoundRect,0.200000X-0.200000X-0.275000X0.200000X-0.275000X0.200000X0.275000X-0.200000X0.275000X0*%
%ADD29RoundRect,0.200000X0.275000X-0.200000X0.275000X0.200000X-0.275000X0.200000X-0.275000X-0.200000X0*%
%ADD30RoundRect,0.200000X-0.275000X0.200000X-0.275000X-0.200000X0.275000X-0.200000X0.275000X0.200000X0*%
%ADD31RoundRect,0.250000X-0.362500X-1.425000X0.362500X-1.425000X0.362500X1.425000X-0.362500X1.425000X0*%
%ADD32R,0.750000X0.300000*%
%ADD33R,0.900000X1.300000*%
%ADD34R,2.500000X1.000000*%
%ADD35R,0.300000X0.500000*%
%ADD36C,1.500000*%
%ADD37C,4.540000*%
%ADD38RoundRect,0.225000X0.250000X-0.225000X0.250000X0.225000X-0.250000X0.225000X-0.250000X-0.225000X0*%
%ADD39RoundRect,0.250000X-0.350000X-0.625000X0.350000X-0.625000X0.350000X0.625000X-0.350000X0.625000X0*%
%ADD40O,1.200000X1.750000*%
%ADD41RoundRect,0.218750X-0.218750X-0.256250X0.218750X-0.256250X0.218750X0.256250X-0.218750X0.256250X0*%
%ADD42C,2.250000*%
%ADD43R,1.508000X1.508000*%
%ADD44C,1.508000*%
%ADD45RoundRect,0.225000X0.225000X0.250000X-0.225000X0.250000X-0.225000X-0.250000X0.225000X-0.250000X0*%
%ADD46R,0.950000X0.550000*%
%ADD47RoundRect,0.150000X0.512500X0.150000X-0.512500X0.150000X-0.512500X-0.150000X0.512500X-0.150000X0*%
G04 APERTURE END LIST*
D10*
X107210000Y-165180000D03*
X150010000Y-164970000D03*
X144980000Y-73370000D03*
X116150000Y-73270000D03*
D11*
X102625000Y-157110000D03*
X102625000Y-162510000D03*
D12*
X122060000Y-156385000D03*
X122060000Y-157935000D03*
D13*
X120290000Y-156390000D03*
X120290000Y-158290000D03*
D12*
X135560000Y-160275000D03*
X135560000Y-161825000D03*
X149850000Y-138460000D03*
X149850000Y-140010000D03*
D14*
X126495000Y-163600000D03*
X128045000Y-163600000D03*
D15*
X136410000Y-152035000D03*
X136410000Y-150135000D03*
D16*
X140380000Y-152010000D03*
X140380000Y-147610000D03*
D12*
X153950000Y-78585000D03*
X153950000Y-80135000D03*
D17*
X101047500Y-139430000D03*
X102672500Y-139430000D03*
D18*
X102700000Y-153900000D03*
X99700000Y-153900000D03*
D17*
X132307500Y-165542000D03*
X133932500Y-165542000D03*
X132327500Y-163992000D03*
X133952500Y-163992000D03*
D19*
X116180000Y-153260000D03*
X116180000Y-160160000D03*
X110025000Y-153235000D03*
X110025000Y-160135000D03*
D20*
X128070000Y-161912000D03*
X129070000Y-161912000D03*
X130070000Y-161912000D03*
X131070000Y-161912000D03*
X132070000Y-161912000D03*
X132070000Y-156488000D03*
X131070000Y-156488000D03*
X130070000Y-156488000D03*
X129070000Y-156488000D03*
X128070000Y-156488000D03*
D21*
X101550000Y-143635000D03*
D22*
X101550000Y-148635000D03*
D23*
X155140000Y-117140000D03*
D24*
X155140000Y-119140000D03*
X155140000Y-121140000D03*
X155140000Y-123140000D03*
D23*
X155140000Y-127840000D03*
D24*
X155140000Y-129840000D03*
X155140000Y-131840000D03*
X155140000Y-133840000D03*
D25*
X98900000Y-110310000D03*
D24*
X98900000Y-108310000D03*
X98900000Y-106310000D03*
X98900000Y-104310000D03*
D26*
X110040000Y-144690000D03*
X121740000Y-144690000D03*
D27*
X125540000Y-156350000D03*
X123640000Y-156350000D03*
X124590000Y-158350000D03*
D28*
X104195000Y-139420000D03*
X105845000Y-139420000D03*
D29*
X133990000Y-161875000D03*
X133990000Y-160225000D03*
D28*
X127895000Y-165540000D03*
X129545000Y-165540000D03*
D30*
X135460000Y-156485000D03*
X135460000Y-158135000D03*
D29*
X133960000Y-158135000D03*
X133960000Y-156485000D03*
D31*
X127637500Y-152030000D03*
X133562500Y-152030000D03*
D28*
X126105000Y-95830000D03*
X127755000Y-95830000D03*
X125345000Y-98620000D03*
X126995000Y-98620000D03*
D23*
X155225000Y-140135000D03*
D24*
X155225000Y-142135000D03*
D23*
X155225000Y-146785000D03*
D24*
X155225000Y-148785000D03*
D32*
X147900000Y-138960000D03*
X147900000Y-138460000D03*
X147900000Y-137960000D03*
X147900000Y-137460000D03*
X145900000Y-137460000D03*
X145900000Y-137960000D03*
X145900000Y-138460000D03*
X145900000Y-138960000D03*
D33*
X146900000Y-138210000D03*
D25*
X98875000Y-91035000D03*
D24*
X98875000Y-89035000D03*
X98875000Y-87035000D03*
D25*
X98870000Y-82310000D03*
D24*
X98870000Y-80310000D03*
X98870000Y-78310000D03*
D25*
X98900000Y-99685000D03*
D24*
X98900000Y-97685000D03*
X98900000Y-95685000D03*
D34*
X115525000Y-131340000D03*
X115525000Y-128800000D03*
X115525000Y-126260000D03*
X115525000Y-123720000D03*
X115525000Y-121180000D03*
X115525000Y-118640000D03*
X100025000Y-118640000D03*
X100025000Y-121180000D03*
X100025000Y-123720000D03*
X100025000Y-126260000D03*
X100025000Y-128800000D03*
X100025000Y-131340000D03*
D35*
X156225000Y-77185000D03*
X155425000Y-77185000D03*
X155425000Y-78585000D03*
X156225000Y-78585000D03*
D12*
X120225000Y-123730000D03*
X120225000Y-125280000D03*
D13*
X122050000Y-123730000D03*
X122050000Y-125630000D03*
D30*
X109140000Y-99365000D03*
X109140000Y-101015000D03*
D36*
X114220000Y-98940000D03*
D37*
X114220000Y-94140000D03*
D13*
X129340000Y-142160000D03*
X129340000Y-144060000D03*
D38*
X120240000Y-121195000D03*
X120240000Y-119645000D03*
D39*
X107100000Y-71460000D03*
D40*
X109100000Y-71460000D03*
X111100000Y-71460000D03*
D41*
X111962500Y-79950000D03*
X113537500Y-79950000D03*
D28*
X137385000Y-140290000D03*
X139035000Y-140290000D03*
D15*
X137225000Y-76480000D03*
X137225000Y-74580000D03*
D28*
X115135000Y-79950000D03*
X116785000Y-79950000D03*
D12*
X136860000Y-142195000D03*
X136860000Y-143745000D03*
D28*
X133925000Y-76480000D03*
X135575000Y-76480000D03*
D15*
X122100000Y-121160000D03*
X122100000Y-119260000D03*
D29*
X128820000Y-94535000D03*
X128820000Y-92885000D03*
D42*
X120877500Y-78185000D03*
X141377500Y-78185000D03*
X120877500Y-135185000D03*
X141377500Y-135185000D03*
D43*
X141287500Y-115300200D03*
D44*
X141287500Y-112760200D03*
X141287500Y-110220200D03*
X141287500Y-107680200D03*
X141287500Y-105140200D03*
X141287500Y-102600200D03*
X141287500Y-100060200D03*
X141287500Y-97520200D03*
X141287500Y-94980200D03*
X141287500Y-92440200D03*
X141287500Y-89900200D03*
X141287500Y-87360200D03*
X141287500Y-84820200D03*
X141287500Y-82280200D03*
X120967500Y-82280200D03*
X120967500Y-84820200D03*
X120967500Y-87360200D03*
X120967500Y-89900200D03*
X120967500Y-92440200D03*
X120967500Y-94980200D03*
X120967500Y-97520200D03*
X120967500Y-100060200D03*
X120967500Y-102600200D03*
X120967500Y-105140200D03*
X120967500Y-107680200D03*
X120967500Y-110220200D03*
X120967500Y-112760200D03*
X120967500Y-115300200D03*
D45*
X130945000Y-88080000D03*
X129395000Y-88080000D03*
D23*
X155070000Y-95840000D03*
D24*
X155070000Y-97840000D03*
X155070000Y-99840000D03*
X155070000Y-101840000D03*
D23*
X155130000Y-106510000D03*
D24*
X155130000Y-108510000D03*
X155130000Y-110510000D03*
X155130000Y-112510000D03*
D29*
X130350000Y-94535000D03*
X130350000Y-92885000D03*
D38*
X130675000Y-76455000D03*
X130675000Y-74905000D03*
D30*
X107490000Y-97655000D03*
X107490000Y-99305000D03*
D15*
X132350000Y-76480000D03*
X132350000Y-74580000D03*
D46*
X128620000Y-76475000D03*
X128620000Y-75225000D03*
X128620000Y-73975000D03*
X128620000Y-72725000D03*
X126470000Y-72725000D03*
X126470000Y-73975000D03*
X126470000Y-75225000D03*
X126470000Y-76475000D03*
D13*
X138530000Y-142190000D03*
X138530000Y-144090000D03*
D23*
X155080000Y-85210000D03*
D24*
X155080000Y-87210000D03*
X155080000Y-89210000D03*
X155080000Y-91210000D03*
D47*
X135157500Y-142190000D03*
X135157500Y-141240000D03*
X135157500Y-140290000D03*
X132882500Y-140290000D03*
X132882500Y-142190000D03*
D12*
X131150000Y-142195000D03*
X131150000Y-143745000D03*
D29*
X131870000Y-94535000D03*
X131870000Y-92885000D03*
M02*
