G04 #@! TF.GenerationSoftware,KiCad,Pcbnew,(6.0.5)*
G04 #@! TF.CreationDate,2022-06-08T00:12:21+02:00*
G04 #@! TF.ProjectId,ruche,72756368-652e-46b6-9963-61645f706362,rev?*
G04 #@! TF.SameCoordinates,Original*
G04 #@! TF.FileFunction,Soldermask,Bot*
G04 #@! TF.FilePolarity,Negative*
%FSLAX46Y46*%
G04 Gerber Fmt 4.6, Leading zero omitted, Abs format (unit mm)*
G04 Created by KiCad (PCBNEW (6.0.5)) date 2022-06-08 00:12:21*
%MOMM*%
%LPD*%
G01*
G04 APERTURE LIST*
G04 Aperture macros list*
%AMRoundRect*
0 Rectangle with rounded corners*
0 $1 Rounding radius*
0 $2 $3 $4 $5 $6 $7 $8 $9 X,Y pos of 4 corners*
0 Add a 4 corners polygon primitive as box body*
4,1,4,$2,$3,$4,$5,$6,$7,$8,$9,$2,$3,0*
0 Add four circle primitives for the rounded corners*
1,1,$1+$1,$2,$3*
1,1,$1+$1,$4,$5*
1,1,$1+$1,$6,$7*
1,1,$1+$1,$8,$9*
0 Add four rect primitives between the rounded corners*
20,1,$1+$1,$2,$3,$4,$5,0*
20,1,$1+$1,$4,$5,$6,$7,0*
20,1,$1+$1,$6,$7,$8,$9,0*
20,1,$1+$1,$8,$9,$2,$3,0*%
%AMFreePoly0*
4,1,20,0.000000,0.744959,0.073905,0.744508,0.209726,0.703889,0.328688,0.626782,0.421226,0.519385,0.479903,0.390333,0.500000,0.250000,0.500000,-0.250000,0.499851,-0.262216,0.476331,-0.402017,0.414519,-0.529596,0.319384,-0.634700,0.198574,-0.708877,0.061801,-0.746166,0.000000,-0.745033,0.000000,-0.750000,-0.550000,-0.750000,-0.550000,0.750000,0.000000,0.750000,0.000000,0.744959,
0.000000,0.744959,$1*%
%AMFreePoly1*
4,1,22,0.550000,-0.750000,0.000000,-0.750000,0.000000,-0.745033,-0.079941,-0.743568,-0.215256,-0.701293,-0.333266,-0.622738,-0.424486,-0.514219,-0.481581,-0.384460,-0.499164,-0.250000,-0.500000,-0.250000,-0.500000,0.250000,-0.499164,0.250000,-0.499963,0.256109,-0.478152,0.396186,-0.417904,0.524511,-0.324060,0.630769,-0.204165,0.706417,-0.067858,0.745374,0.000000,0.744959,0.000000,0.750000,
0.550000,0.750000,0.550000,-0.750000,0.550000,-0.750000,$1*%
G04 Aperture macros list end*
%ADD10R,2.175000X2.175000*%
%ADD11C,2.175000*%
%ADD12RoundRect,0.250000X0.625000X-0.350000X0.625000X0.350000X-0.625000X0.350000X-0.625000X-0.350000X0*%
%ADD13O,1.750000X1.200000*%
%ADD14RoundRect,0.250000X-0.625000X0.350000X-0.625000X-0.350000X0.625000X-0.350000X0.625000X0.350000X0*%
%ADD15C,1.500000*%
%ADD16C,4.540000*%
%ADD17RoundRect,0.250000X-0.350000X-0.625000X0.350000X-0.625000X0.350000X0.625000X-0.350000X0.625000X0*%
%ADD18O,1.200000X1.750000*%
%ADD19R,1.650000X1.650000*%
%ADD20C,1.650000*%
%ADD21C,2.250000*%
%ADD22FreePoly0,270.000000*%
%ADD23R,1.500000X1.000000*%
%ADD24FreePoly1,270.000000*%
%ADD25R,0.700000X1.200000*%
%ADD26R,1.000000X0.800000*%
%ADD27R,1.300000X1.900000*%
%ADD28R,1.000000X1.200000*%
%ADD29R,1.000000X2.800000*%
G04 APERTURE END LIST*
D10*
X101550000Y-143635000D03*
D11*
X101550000Y-148635000D03*
D12*
X98900000Y-110310000D03*
D13*
X98900000Y-108310000D03*
X98900000Y-106310000D03*
X98900000Y-104310000D03*
D14*
X166010000Y-153050000D03*
D13*
X166010000Y-155050000D03*
D14*
X165990000Y-159690000D03*
D13*
X165990000Y-161690000D03*
D12*
X98875000Y-91035000D03*
D13*
X98875000Y-89035000D03*
X98875000Y-87035000D03*
D12*
X98870000Y-82310000D03*
D13*
X98870000Y-80310000D03*
X98870000Y-78310000D03*
D12*
X98900000Y-99685000D03*
D13*
X98900000Y-97685000D03*
X98900000Y-95685000D03*
D15*
X114220000Y-98940000D03*
D16*
X114220000Y-94140000D03*
D17*
X107100000Y-71460000D03*
D18*
X109100000Y-71460000D03*
X111100000Y-71460000D03*
D19*
X164870000Y-107720000D03*
D20*
X164870000Y-105180000D03*
X164870000Y-102640000D03*
X164870000Y-100100000D03*
X164870000Y-97560000D03*
D14*
X165870000Y-140940000D03*
D13*
X165870000Y-142940000D03*
X165870000Y-144940000D03*
X165870000Y-146940000D03*
D19*
X164900000Y-121250000D03*
D20*
X164900000Y-118710000D03*
X164900000Y-116170000D03*
X164900000Y-113630000D03*
X164900000Y-111090000D03*
D21*
X120877500Y-78185000D03*
X141377500Y-78185000D03*
X120877500Y-135185000D03*
X141377500Y-135185000D03*
D13*
X141287500Y-115300200D03*
X141287500Y-112760200D03*
X141287500Y-110220200D03*
X141287500Y-107680200D03*
X141287500Y-105140200D03*
X141287500Y-102600200D03*
X141287500Y-100060200D03*
X141287500Y-97520200D03*
X141287500Y-94980200D03*
X141287500Y-92440200D03*
X141287500Y-89900200D03*
X141287500Y-87360200D03*
X141287500Y-84820200D03*
X141287500Y-82280200D03*
X120967500Y-82280200D03*
X120967500Y-84820200D03*
X120967500Y-87360200D03*
X120967500Y-89900200D03*
X120967500Y-92440200D03*
X120967500Y-94980200D03*
X120967500Y-97520200D03*
X120967500Y-100060200D03*
X120967500Y-102600200D03*
X120967500Y-105140200D03*
X120967500Y-107680200D03*
X120967500Y-110220200D03*
X120967500Y-112760200D03*
X120967500Y-115300200D03*
D19*
X164900000Y-134800000D03*
D20*
X164900000Y-132260000D03*
X164900000Y-129720000D03*
X164900000Y-127180000D03*
X164900000Y-124640000D03*
D19*
X164870000Y-94100000D03*
D20*
X164870000Y-91560000D03*
X164870000Y-89020000D03*
X164870000Y-86480000D03*
X164870000Y-83940000D03*
D22*
X159460000Y-146260000D03*
D23*
X159460000Y-144960000D03*
D24*
X159460000Y-143660000D03*
D25*
X134235000Y-85835000D03*
X133135000Y-85835000D03*
X132035000Y-85835000D03*
X130935000Y-85835000D03*
X129835000Y-85835000D03*
X128735000Y-85835000D03*
X127635000Y-85835000D03*
X126535000Y-85835000D03*
X125585000Y-85835000D03*
D26*
X124635000Y-75335000D03*
D27*
X138135000Y-70735000D03*
D28*
X135785000Y-85835000D03*
X124635000Y-81535000D03*
D29*
X124635000Y-71185000D03*
M02*
