G04 #@! TF.GenerationSoftware,KiCad,Pcbnew,(6.0.5)*
G04 #@! TF.CreationDate,2022-06-03T15:55:02+02:00*
G04 #@! TF.ProjectId,ruche,72756368-652e-46b6-9963-61645f706362,rev?*
G04 #@! TF.SameCoordinates,Original*
G04 #@! TF.FileFunction,Profile,NP*
%FSLAX46Y46*%
G04 Gerber Fmt 4.6, Leading zero omitted, Abs format (unit mm)*
G04 Created by KiCad (PCBNEW (6.0.5)) date 2022-06-03 15:55:02*
%MOMM*%
%LPD*%
G01*
G04 APERTURE LIST*
G04 #@! TA.AperFunction,Profile*
%ADD10C,0.050000*%
G04 #@! TD*
G04 APERTURE END LIST*
D10*
X98500000Y-169010000D02*
X155500000Y-169010000D01*
X157500000Y-80610000D02*
X157500000Y-75610000D01*
X157499975Y-71110000D02*
G75*
G03*
X155500000Y-69100000I-1999975J10000D01*
G01*
X96500000Y-80390000D02*
X96500000Y-167110000D01*
X152500000Y-76560000D02*
X152500000Y-75610000D01*
X157000000Y-81110000D02*
G75*
G03*
X157500000Y-80610000I0J500000D01*
G01*
X153000000Y-81110000D02*
X157000000Y-81110000D01*
X156500000Y-71610000D02*
G75*
G03*
X156500000Y-71610000I-1500000J0D01*
G01*
X157000000Y-74110000D02*
X152000000Y-74110000D01*
X98500000Y-69100000D02*
X125900000Y-69100000D01*
X157500000Y-75610000D02*
G75*
G03*
X157000000Y-75110000I-500000J0D01*
G01*
X152000000Y-74110000D02*
G75*
G03*
X151500000Y-74610000I0J-500000D01*
G01*
X152500000Y-79110000D02*
G75*
G03*
X151500000Y-79110000I-500000J0D01*
G01*
X100500000Y-166510000D02*
G75*
G03*
X100500000Y-166510000I-1500000J0D01*
G01*
X157000000Y-82110000D02*
X152000000Y-82110000D01*
X155500000Y-69100000D02*
X125900000Y-69100000D01*
X151500000Y-81610000D02*
X151500000Y-79110000D01*
X152500000Y-79110000D02*
X152500000Y-80610000D01*
X152500000Y-80610000D02*
G75*
G03*
X153000000Y-81110000I500000J0D01*
G01*
X98500000Y-69100025D02*
G75*
G03*
X96500000Y-71110000I10000J-2009975D01*
G01*
X155500000Y-169010000D02*
G75*
G03*
X157500000Y-167110000I97500J1900000D01*
G01*
X151500000Y-81610000D02*
G75*
G03*
X152000000Y-82110000I500000J0D01*
G01*
X96500000Y-167110000D02*
G75*
G03*
X98500000Y-169010000I1902500J0D01*
G01*
X157500000Y-82610000D02*
G75*
G03*
X157000000Y-82110000I-500000J0D01*
G01*
X156500000Y-166510000D02*
G75*
G03*
X156500000Y-166510000I-1500000J0D01*
G01*
X153000000Y-75110000D02*
X157000000Y-75110000D01*
X157500000Y-73610000D02*
X157500000Y-71110000D01*
X153000000Y-75110000D02*
G75*
G03*
X152500000Y-75610000I0J-500000D01*
G01*
X151500000Y-74610000D02*
X151500000Y-76560000D01*
X157000000Y-74110000D02*
G75*
G03*
X157500000Y-73610000I0J500000D01*
G01*
X96500000Y-80390000D02*
X96500000Y-71110000D01*
X151500000Y-76560000D02*
G75*
G03*
X152500000Y-76560000I500000J0D01*
G01*
X157500000Y-167110000D02*
X157500000Y-82610000D01*
X100500000Y-71610000D02*
G75*
G03*
X100500000Y-71610000I-1500000J0D01*
G01*
M02*
