M48
; DRILL file {KiCad (6.0.5)} date Thu Jun  9 16:15:52 2022
; FORMAT={-:-/ absolute / metric / decimal}
; #@! TF.CreationDate,2022-06-09T16:15:52+02:00
; #@! TF.GenerationSoftware,Kicad,Pcbnew,(6.0.5)
; #@! TF.FileFunction,Plated,1,2,PTH
FMAT,2
METRIC
; #@! TA.AperFunction,Plated,PTH,ViaDrill
T1C0.300
; #@! TA.AperFunction,Plated,PTH,ComponentDrill
T2C0.750
; #@! TA.AperFunction,Plated,PTH,ComponentDrill
T3C1.000
; #@! TA.AperFunction,Plated,PTH,ComponentDrill
T4C1.100
; #@! TA.AperFunction,Plated,PTH,ComponentDrill
T5C1.450
; #@! TA.AperFunction,Plated,PTH,ComponentDrill
T6C3.026
%
G90
G05
T1
X98.06Y-75.41
X98.06Y-85.41
X98.06Y-92.91
X98.06Y-102.91
X98.06Y-112.91
X98.06Y-115.41
X98.06Y-117.91
X98.06Y-120.41
X98.06Y-122.91
X98.06Y-125.41
X98.06Y-127.91
X98.06Y-130.41
X98.06Y-132.91
X98.06Y-137.91
X98.07Y-135.41
X98.07Y-140.41
X98.07Y-142.91
X98.07Y-145.41
X98.07Y-147.91
X98.07Y-150.41
X98.07Y-152.91
X98.07Y-155.41
X98.07Y-157.91
X98.07Y-160.41
X98.07Y-162.91
X100.56Y-75.41
X100.56Y-112.91
X100.56Y-115.41
X100.56Y-132.91
X100.56Y-135.41
X100.56Y-137.91
X100.67Y-164.69
X101.03Y-162.52
X101.88Y-166.57
X102.11Y-131.33
X103.06Y-70.41
X103.06Y-72.91
X103.06Y-112.91
X103.06Y-115.41
X103.06Y-117.91
X103.06Y-120.41
X103.06Y-122.91
X103.06Y-125.41
X103.06Y-127.91
X103.06Y-130.41
X103.06Y-132.91
X103.06Y-135.41
X103.06Y-137.91
X103.36Y-167.75
X104.05Y-99.31
X105.56Y-70.41
X105.56Y-112.91
X105.56Y-115.41
X105.56Y-117.91
X105.56Y-120.41
X105.56Y-122.91
X105.56Y-125.41
X105.56Y-127.91
X105.56Y-130.41
X105.56Y-132.91
X105.56Y-135.41
X105.56Y-137.91
X105.86Y-167.75
X106.94Y-139.42
X107.83Y-103.78
X108.06Y-112.91
X108.06Y-115.41
X108.06Y-117.91
X108.06Y-120.41
X108.06Y-122.91
X108.06Y-125.41
X108.06Y-127.91
X108.06Y-130.41
X108.06Y-132.91
X108.06Y-135.41
X108.06Y-137.91
X108.35Y-167.73
X109.49Y-97.31
X109.7Y-92.4
X110.56Y-112.91
X110.56Y-115.41
X110.56Y-117.91
X110.56Y-120.41
X110.56Y-122.91
X110.56Y-125.41
X110.56Y-127.91
X110.56Y-130.41
X110.56Y-132.91
X110.56Y-135.41
X110.56Y-137.91
X110.86Y-167.75
X110.89Y-79.93
X113.06Y-70.41
X113.06Y-112.91
X113.06Y-115.41
X113.06Y-117.91
X113.06Y-120.41
X113.06Y-122.91
X113.06Y-125.41
X113.06Y-127.91
X113.06Y-130.41
X113.06Y-132.91
X113.06Y-135.41
X113.06Y-137.91
X113.36Y-167.75
X115.56Y-70.41
X115.56Y-112.91
X115.56Y-115.41
X115.56Y-132.91
X115.56Y-135.41
X115.56Y-137.91
X115.86Y-167.75
X116.18Y-161.99
X117.57Y-126.25
X118.05Y-130.1
X118.06Y-70.41
X118.06Y-112.91
X118.06Y-115.41
X118.06Y-117.91
X118.06Y-135.41
X118.06Y-137.91
X118.11Y-120.05
X118.14Y-132.98
X118.16Y-122.48
X118.36Y-167.75
X120.14Y-122.46
X120.22Y-126.46
X120.22Y-159.49
X120.56Y-70.41
X120.56Y-117.91
X120.56Y-130.12
X120.56Y-132.91
X120.56Y-137.91
X120.86Y-167.75
X121.89Y-159.12
X122.05Y-126.86
X122.14Y-122.46
X122.75Y-132.91
X122.91Y-135.95
X122.94Y-137.93
X123.06Y-70.41
X123.07Y-130.06
X123.27Y-98.71
X123.36Y-167.75
X123.37Y-92.03
X123.87Y-96.37
X124.07Y-123.74
X124.12Y-132.96
X125.325Y-126.035
X125.4Y-134.285
X125.54Y-87.05
X125.753Y-83.374
X125.86Y-167.75
X126.125Y-94.7
X126.14Y-100.45
X126.4Y-125.26
X126.43Y-71.59
X126.45Y-133.6
X126.47Y-84.07
X126.95Y-109.6
X127.49Y-138.74
X127.81Y-129.01
X127.93Y-101.73
X128.06Y-70.41
X128.23Y-88.02
X128.36Y-167.75
X128.57Y-71.57
X128.74Y-84.72
X128.79Y-78.31
X128.794Y-103.66
X128.93Y-91.77
X129.06Y-160.49
X129.36Y-145.09
X130.37Y-91.71
X130.56Y-70.41
X130.65Y-73.62
X130.86Y-167.75
X130.96Y-87.0
X131.16Y-144.74
X131.77Y-91.63
X131.94Y-112.48
X132.07Y-101.71
X132.31Y-127.03
X132.32Y-73.24
X133.06Y-70.41
X133.36Y-167.75
X133.767Y-120.579
X133.82Y-89.04
X133.82Y-91.89
X134.0Y-141.26
X135.58Y-162.81
X135.61Y-95.11
X135.86Y-167.75
X136.37Y-141.19
X136.4Y-148.89
X136.51Y-158.13
X136.72Y-81.7
X136.83Y-144.74
X137.13Y-125.78
X137.18Y-73.25
X137.19Y-78.95
X138.36Y-167.75
X138.54Y-81.7
X138.54Y-145.14
X138.84Y-76.52
X139.43Y-81.25
X140.21Y-140.29
X140.38Y-145.42
X140.56Y-70.41
X140.7Y-167.75
X140.74Y-132.48
X141.26Y-123.72
X141.313Y-140.817
X142.43Y-152.01
X143.06Y-70.41
X143.2Y-167.75
X143.33Y-152.01
X144.181Y-142.142
X144.58Y-89.82
X144.97Y-124.02
X144.97Y-138.16
X145.14Y-110.06
X145.56Y-70.41
X145.7Y-167.75
X145.98Y-95.86
X146.477Y-145.445
X147.63Y-91.15
X147.67Y-132.72
X147.68Y-119.8
X147.68Y-134.0
X147.7Y-118.54
X147.74Y-105.5
X147.75Y-104.25
X148.06Y-70.41
X148.2Y-167.75
X149.37Y-146.3
X149.97Y-130.21
X150.0Y-87.3
X150.03Y-115.97
X150.04Y-101.67
X150.14Y-108.4
X150.31Y-136.91
X150.39Y-122.69
X150.48Y-94.01
X150.56Y-70.41
X150.7Y-167.75
X150.94Y-152.96
X153.06Y-70.41
X153.06Y-167.91
X154.35Y-130.46
X154.44Y-116.24
X154.6Y-141.079
X154.71Y-87.57
X154.91Y-101.9
X155.56Y-70.41
X155.56Y-167.91
X156.06Y-124.09
X156.17Y-138.29
X156.38Y-110.0
X156.52Y-95.74
X157.43Y-114.26
X158.06Y-70.41
X158.06Y-167.91
X159.26Y-118.2
X159.27Y-128.65
X159.37Y-103.74
X159.44Y-132.36
X159.52Y-100.26
X159.55Y-89.28
X159.59Y-86.05
X160.27Y-124.2
X160.41Y-109.98
X160.43Y-138.36
X160.56Y-70.41
X160.56Y-75.41
X160.56Y-80.41
X160.56Y-167.91
X160.77Y-95.56
X163.06Y-70.41
X163.06Y-72.91
X163.06Y-165.41
X163.06Y-167.91
X165.56Y-137.91
X165.64Y-157.41
X165.67Y-149.91
X166.26Y-80.12
X167.29Y-79.57
T2
X98.87Y-78.31
X98.87Y-80.31
X98.87Y-82.31
X98.875Y-87.035
X98.875Y-89.035
X98.875Y-91.035
X98.9Y-95.685
X98.9Y-97.685
X98.9Y-99.685
X98.9Y-104.31
X98.9Y-106.31
X98.9Y-108.31
X98.9Y-110.31
X107.1Y-71.46
X109.1Y-71.46
X111.1Y-71.46
X120.968Y-82.28
X120.968Y-84.82
X120.968Y-87.36
X120.968Y-89.9
X120.968Y-92.44
X120.968Y-94.98
X120.968Y-97.52
X120.968Y-100.06
X120.968Y-102.6
X120.968Y-105.14
X120.968Y-107.68
X120.968Y-110.22
X120.968Y-112.76
X120.968Y-115.3
X141.287Y-82.28
X141.287Y-84.82
X141.287Y-87.36
X141.287Y-89.9
X141.287Y-92.44
X141.287Y-94.98
X141.287Y-97.52
X141.287Y-100.06
X141.287Y-102.6
X141.287Y-105.14
X141.287Y-107.68
X141.287Y-110.22
X141.287Y-112.76
X141.287Y-115.3
X165.87Y-140.94
X165.87Y-142.94
X165.87Y-144.94
X165.87Y-146.94
X165.99Y-159.69
X165.99Y-161.69
X166.01Y-153.05
X166.01Y-155.05
T3
X114.22Y-98.94
T4
X164.87Y-83.94
X164.87Y-86.48
X164.87Y-89.02
X164.87Y-91.56
X164.87Y-94.1
X164.87Y-97.56
X164.87Y-100.1
X164.87Y-102.64
X164.87Y-105.18
X164.87Y-107.72
X164.9Y-111.09
X164.9Y-113.63
X164.9Y-116.17
X164.9Y-118.71
X164.9Y-121.25
X164.9Y-124.64
X164.9Y-127.18
X164.9Y-129.72
X164.9Y-132.26
X164.9Y-134.8
T5
X101.55Y-143.635
X101.55Y-148.635
T6
X114.22Y-94.14
T0
M30
