G04 #@! TF.GenerationSoftware,KiCad,Pcbnew,(6.0.5)*
G04 #@! TF.CreationDate,2022-06-08T00:12:21+02:00*
G04 #@! TF.ProjectId,ruche,72756368-652e-46b6-9963-61645f706362,rev?*
G04 #@! TF.SameCoordinates,Original*
G04 #@! TF.FileFunction,Soldermask,Top*
G04 #@! TF.FilePolarity,Negative*
%FSLAX46Y46*%
G04 Gerber Fmt 4.6, Leading zero omitted, Abs format (unit mm)*
G04 Created by KiCad (PCBNEW (6.0.5)) date 2022-06-08 00:12:21*
%MOMM*%
%LPD*%
G01*
G04 APERTURE LIST*
G04 Aperture macros list*
%AMRoundRect*
0 Rectangle with rounded corners*
0 $1 Rounding radius*
0 $2 $3 $4 $5 $6 $7 $8 $9 X,Y pos of 4 corners*
0 Add a 4 corners polygon primitive as box body*
4,1,4,$2,$3,$4,$5,$6,$7,$8,$9,$2,$3,0*
0 Add four circle primitives for the rounded corners*
1,1,$1+$1,$2,$3*
1,1,$1+$1,$4,$5*
1,1,$1+$1,$6,$7*
1,1,$1+$1,$8,$9*
0 Add four rect primitives between the rounded corners*
20,1,$1+$1,$2,$3,$4,$5,0*
20,1,$1+$1,$4,$5,$6,$7,0*
20,1,$1+$1,$6,$7,$8,$9,0*
20,1,$1+$1,$8,$9,$2,$3,0*%
G04 Aperture macros list end*
%ADD10RoundRect,0.250000X-0.550000X1.500000X-0.550000X-1.500000X0.550000X-1.500000X0.550000X1.500000X0*%
%ADD11RoundRect,0.225000X-0.250000X0.225000X-0.250000X-0.225000X0.250000X-0.225000X0.250000X0.225000X0*%
%ADD12RoundRect,0.250000X-0.475000X0.250000X-0.475000X-0.250000X0.475000X-0.250000X0.475000X0.250000X0*%
%ADD13RoundRect,0.225000X-0.225000X-0.250000X0.225000X-0.250000X0.225000X0.250000X-0.225000X0.250000X0*%
%ADD14RoundRect,0.250000X0.475000X-0.250000X0.475000X0.250000X-0.475000X0.250000X-0.475000X-0.250000X0*%
%ADD15RoundRect,0.250000X0.550000X-1.250000X0.550000X1.250000X-0.550000X1.250000X-0.550000X-1.250000X0*%
%ADD16RoundRect,0.212500X-0.400000X-0.212500X0.400000X-0.212500X0.400000X0.212500X-0.400000X0.212500X0*%
%ADD17R,1.240000X1.120000*%
%ADD18R,3.200000X2.250000*%
%ADD19R,0.650000X1.525000*%
%ADD20R,2.175000X2.175000*%
%ADD21C,2.175000*%
%ADD22RoundRect,0.250000X0.625000X-0.350000X0.625000X0.350000X-0.625000X0.350000X-0.625000X-0.350000X0*%
%ADD23O,1.750000X1.200000*%
%ADD24R,3.650000X3.750000*%
%ADD25R,0.800000X0.900000*%
%ADD26RoundRect,0.200000X-0.200000X-0.275000X0.200000X-0.275000X0.200000X0.275000X-0.200000X0.275000X0*%
%ADD27RoundRect,0.200000X0.275000X-0.200000X0.275000X0.200000X-0.275000X0.200000X-0.275000X-0.200000X0*%
%ADD28RoundRect,0.200000X-0.275000X0.200000X-0.275000X-0.200000X0.275000X-0.200000X0.275000X0.200000X0*%
%ADD29RoundRect,0.250000X-0.362500X-1.425000X0.362500X-1.425000X0.362500X1.425000X-0.362500X1.425000X0*%
%ADD30RoundRect,0.250000X-0.625000X0.350000X-0.625000X-0.350000X0.625000X-0.350000X0.625000X0.350000X0*%
%ADD31R,0.900000X1.300000*%
%ADD32R,0.750000X0.300000*%
%ADD33R,2.500000X1.000000*%
%ADD34R,0.300000X0.500000*%
%ADD35C,1.500000*%
%ADD36C,4.540000*%
%ADD37RoundRect,0.225000X0.250000X-0.225000X0.250000X0.225000X-0.250000X0.225000X-0.250000X-0.225000X0*%
%ADD38RoundRect,0.250000X-0.350000X-0.625000X0.350000X-0.625000X0.350000X0.625000X-0.350000X0.625000X0*%
%ADD39O,1.200000X1.750000*%
%ADD40RoundRect,0.150000X-0.587500X-0.150000X0.587500X-0.150000X0.587500X0.150000X-0.587500X0.150000X0*%
%ADD41R,1.650000X1.650000*%
%ADD42C,1.650000*%
%ADD43RoundRect,0.218750X0.218750X0.256250X-0.218750X0.256250X-0.218750X-0.256250X0.218750X-0.256250X0*%
%ADD44RoundRect,0.218750X-0.218750X-0.256250X0.218750X-0.256250X0.218750X0.256250X-0.218750X0.256250X0*%
%ADD45RoundRect,0.250000X-0.250000X-0.475000X0.250000X-0.475000X0.250000X0.475000X-0.250000X0.475000X0*%
%ADD46R,1.525000X0.700000*%
%ADD47C,2.250000*%
%ADD48RoundRect,0.225000X0.225000X0.250000X-0.225000X0.250000X-0.225000X-0.250000X0.225000X-0.250000X0*%
%ADD49C,3.000000*%
%ADD50R,0.950000X0.550000*%
%ADD51RoundRect,0.150000X0.512500X0.150000X-0.512500X0.150000X-0.512500X-0.150000X0.512500X-0.150000X0*%
G04 APERTURE END LIST*
D10*
X102625000Y-157110000D03*
X102625000Y-162510000D03*
D11*
X122060000Y-156385000D03*
X122060000Y-157935000D03*
D12*
X120290000Y-156390000D03*
X120290000Y-158290000D03*
D11*
X135560000Y-160275000D03*
X135560000Y-161825000D03*
X149347466Y-145307466D03*
X149347466Y-143757466D03*
D13*
X126495000Y-163600000D03*
X128045000Y-163600000D03*
D14*
X136410000Y-152035000D03*
X136410000Y-150135000D03*
D15*
X140380000Y-152010000D03*
X140380000Y-147610000D03*
D11*
X165012609Y-78557391D03*
X165012609Y-80107391D03*
D16*
X101047500Y-139430000D03*
X102672500Y-139430000D03*
D17*
X102700000Y-153900000D03*
X99700000Y-153900000D03*
D16*
X132307500Y-165542000D03*
X133932500Y-165542000D03*
X132327500Y-163992000D03*
X133952500Y-163992000D03*
D18*
X116180000Y-153260000D03*
X116180000Y-160160000D03*
X110025000Y-153235000D03*
X110025000Y-160135000D03*
D19*
X128070000Y-161912000D03*
X129070000Y-161912000D03*
X130070000Y-161912000D03*
X131070000Y-161912000D03*
X132070000Y-161912000D03*
X132070000Y-156488000D03*
X131070000Y-156488000D03*
X130070000Y-156488000D03*
X129070000Y-156488000D03*
X128070000Y-156488000D03*
D20*
X101550000Y-143635000D03*
D21*
X101550000Y-148635000D03*
D22*
X98900000Y-110310000D03*
D23*
X98900000Y-108310000D03*
X98900000Y-106310000D03*
X98900000Y-104310000D03*
D24*
X110040000Y-144690000D03*
X121740000Y-144690000D03*
D25*
X125540000Y-156350000D03*
X123640000Y-156350000D03*
X124590000Y-158350000D03*
D26*
X104195000Y-139420000D03*
X105845000Y-139420000D03*
D27*
X133990000Y-161875000D03*
X133990000Y-160225000D03*
D26*
X127895000Y-165540000D03*
X129545000Y-165540000D03*
D28*
X135460000Y-156485000D03*
X135460000Y-158135000D03*
D27*
X133960000Y-158135000D03*
X133960000Y-156485000D03*
D29*
X127637500Y-152030000D03*
X133562500Y-152030000D03*
D26*
X126105000Y-95830000D03*
X127755000Y-95830000D03*
X125345000Y-98620000D03*
X126995000Y-98620000D03*
D30*
X166010000Y-153050000D03*
D23*
X166010000Y-155050000D03*
D30*
X165990000Y-159690000D03*
D23*
X165990000Y-161690000D03*
D31*
X146397466Y-143507466D03*
D32*
X145397466Y-144257466D03*
X145397466Y-143757466D03*
X145397466Y-143257466D03*
X145397466Y-142757466D03*
X147397466Y-142757466D03*
X147397466Y-143257466D03*
X147397466Y-143757466D03*
X147397466Y-144257466D03*
D22*
X98875000Y-91035000D03*
D23*
X98875000Y-89035000D03*
X98875000Y-87035000D03*
D22*
X98870000Y-82310000D03*
D23*
X98870000Y-80310000D03*
X98870000Y-78310000D03*
D22*
X98900000Y-99685000D03*
D23*
X98900000Y-97685000D03*
X98900000Y-95685000D03*
D33*
X115525000Y-131340000D03*
X115525000Y-128800000D03*
X115525000Y-126260000D03*
X115525000Y-123720000D03*
X115525000Y-121180000D03*
X115525000Y-118640000D03*
X100025000Y-118640000D03*
X100025000Y-121180000D03*
X100025000Y-123720000D03*
X100025000Y-126260000D03*
X100025000Y-128800000D03*
X100025000Y-131340000D03*
D34*
X167287609Y-77157391D03*
X166487609Y-77157391D03*
X166487609Y-78557391D03*
X167287609Y-78557391D03*
D11*
X120225000Y-123730000D03*
X120225000Y-125280000D03*
D12*
X122050000Y-123730000D03*
X122050000Y-125630000D03*
D28*
X109140000Y-99365000D03*
X109140000Y-101015000D03*
D35*
X114220000Y-98940000D03*
D36*
X114220000Y-94140000D03*
D12*
X129340000Y-142160000D03*
X129340000Y-144060000D03*
D37*
X120240000Y-121195000D03*
X120240000Y-119645000D03*
D27*
X158540000Y-87655000D03*
X158540000Y-86005000D03*
D14*
X159570000Y-92450000D03*
X159570000Y-90550000D03*
X159420000Y-133390000D03*
X159420000Y-135290000D03*
D38*
X107100000Y-71460000D03*
D39*
X109100000Y-71460000D03*
X111100000Y-71460000D03*
D40*
X154952500Y-133340000D03*
X154952500Y-135240000D03*
X156827500Y-134290000D03*
D27*
X158280000Y-130325000D03*
X158280000Y-128675000D03*
X156980000Y-89235000D03*
X156980000Y-87585000D03*
D41*
X164870000Y-107720000D03*
D42*
X164870000Y-105180000D03*
X164870000Y-102640000D03*
X164870000Y-100100000D03*
X164870000Y-97560000D03*
D37*
X153370000Y-113105000D03*
X153370000Y-111555000D03*
D30*
X165870000Y-140940000D03*
D23*
X165870000Y-142940000D03*
X165870000Y-144940000D03*
X165870000Y-146940000D03*
D13*
X146145000Y-122720000D03*
X147695000Y-122720000D03*
D11*
X153410000Y-106775000D03*
X153410000Y-108325000D03*
D43*
X157677500Y-122630000D03*
X156102500Y-122630000D03*
D11*
X159370000Y-108445000D03*
X159370000Y-109995000D03*
D14*
X159370000Y-106910000D03*
X159370000Y-105010000D03*
D44*
X111962500Y-79950000D03*
X113537500Y-79950000D03*
D27*
X158460000Y-115925000D03*
X158460000Y-114275000D03*
D45*
X146210000Y-110140000D03*
X148110000Y-110140000D03*
X146090000Y-138670000D03*
X147990000Y-138670000D03*
D41*
X164900000Y-121250000D03*
D42*
X164900000Y-118710000D03*
X164900000Y-116170000D03*
X164900000Y-113630000D03*
X164900000Y-111090000D03*
D40*
X155152500Y-104870000D03*
X155152500Y-106770000D03*
X157027500Y-105820000D03*
D27*
X156820000Y-131945000D03*
X156820000Y-130295000D03*
D26*
X137385000Y-140290000D03*
X139035000Y-140290000D03*
D11*
X159570000Y-94035000D03*
X159570000Y-95585000D03*
D14*
X137225000Y-76480000D03*
X137225000Y-74580000D03*
D11*
X159270000Y-122625000D03*
X159270000Y-124175000D03*
X153350000Y-121085000D03*
X153350000Y-122635000D03*
D26*
X115135000Y-79950000D03*
X116785000Y-79950000D03*
D13*
X146105000Y-136930000D03*
X147655000Y-136930000D03*
D11*
X136860000Y-142195000D03*
X136860000Y-143745000D03*
D26*
X133925000Y-76480000D03*
X135575000Y-76480000D03*
D13*
X146175000Y-108360000D03*
X147725000Y-108360000D03*
D43*
X158007500Y-94010000D03*
X156432500Y-94010000D03*
X157700000Y-136810000D03*
X156125000Y-136810000D03*
D14*
X122100000Y-121160000D03*
X122100000Y-119260000D03*
D26*
X154815000Y-111560000D03*
X156465000Y-111560000D03*
D46*
X151602000Y-106775000D03*
X151602000Y-105505000D03*
X151602000Y-104235000D03*
X151602000Y-102965000D03*
X151602000Y-101695000D03*
X151602000Y-100425000D03*
X151602000Y-99155000D03*
X151602000Y-97885000D03*
X146178000Y-97885000D03*
X146178000Y-99155000D03*
X146178000Y-100425000D03*
X146178000Y-101695000D03*
X146178000Y-102965000D03*
X146178000Y-104235000D03*
X146178000Y-105505000D03*
X146178000Y-106775000D03*
D27*
X128820000Y-94535000D03*
X128820000Y-92885000D03*
D46*
X151562000Y-121085000D03*
X151562000Y-119815000D03*
X151562000Y-118545000D03*
X151562000Y-117275000D03*
X151562000Y-116005000D03*
X151562000Y-114735000D03*
X151562000Y-113465000D03*
X151562000Y-112195000D03*
X146138000Y-112195000D03*
X146138000Y-113465000D03*
X146138000Y-114735000D03*
X146138000Y-116005000D03*
X146138000Y-117275000D03*
X146138000Y-118545000D03*
X146138000Y-119815000D03*
X146138000Y-121085000D03*
D47*
X120877500Y-78185000D03*
X141377500Y-78185000D03*
X120877500Y-135185000D03*
X141377500Y-135185000D03*
D23*
X141287500Y-115300200D03*
X141287500Y-112760200D03*
X141287500Y-110220200D03*
X141287500Y-107680200D03*
X141287500Y-105140200D03*
X141287500Y-102600200D03*
X141287500Y-100060200D03*
X141287500Y-97520200D03*
X141287500Y-94980200D03*
X141287500Y-92440200D03*
X141287500Y-89900200D03*
X141287500Y-87360200D03*
X141287500Y-84820200D03*
X141287500Y-82280200D03*
X120967500Y-82280200D03*
X120967500Y-84820200D03*
X120967500Y-87360200D03*
X120967500Y-89900200D03*
X120967500Y-92440200D03*
X120967500Y-94980200D03*
X120967500Y-97520200D03*
X120967500Y-100060200D03*
X120967500Y-102600200D03*
X120967500Y-105140200D03*
X120967500Y-107680200D03*
X120967500Y-110220200D03*
X120967500Y-112760200D03*
X120967500Y-115300200D03*
D48*
X130945000Y-88080000D03*
X129395000Y-88080000D03*
D27*
X157040000Y-103545000D03*
X157040000Y-101895000D03*
D26*
X154745000Y-127400000D03*
X156395000Y-127400000D03*
D49*
X107210000Y-165180000D03*
D45*
X146130000Y-95840000D03*
X148030000Y-95840000D03*
D49*
X116150000Y-73270000D03*
D45*
X146150000Y-124500000D03*
X148050000Y-124500000D03*
D11*
X153458000Y-92380000D03*
X153458000Y-93930000D03*
D37*
X153820000Y-98895000D03*
X153820000Y-97345000D03*
D46*
X151542000Y-135285000D03*
X151542000Y-134015000D03*
X151542000Y-132745000D03*
X151542000Y-131475000D03*
X151542000Y-130205000D03*
X151542000Y-128935000D03*
X151542000Y-127665000D03*
X151542000Y-126395000D03*
X146118000Y-126395000D03*
X146118000Y-127665000D03*
X146118000Y-128935000D03*
X146118000Y-130205000D03*
X146118000Y-131475000D03*
X146118000Y-132745000D03*
X146118000Y-134015000D03*
X146118000Y-135285000D03*
D26*
X154815000Y-113110000D03*
X156465000Y-113110000D03*
D11*
X153370000Y-136815000D03*
X153370000Y-135265000D03*
D13*
X146115000Y-93980000D03*
X147665000Y-93980000D03*
D27*
X158540000Y-101915000D03*
X158540000Y-100265000D03*
X130350000Y-94535000D03*
X130350000Y-92885000D03*
D37*
X130675000Y-76455000D03*
X130675000Y-74905000D03*
D40*
X155072500Y-119190000D03*
X155072500Y-121090000D03*
X156947500Y-120140000D03*
D37*
X153710000Y-87585000D03*
X153710000Y-86035000D03*
D49*
X159560000Y-72050000D03*
D26*
X155265000Y-98890000D03*
X156915000Y-98890000D03*
D37*
X153820000Y-101965000D03*
X153820000Y-100415000D03*
D11*
X159420000Y-136805000D03*
X159420000Y-138355000D03*
D49*
X160020000Y-165750000D03*
D43*
X157847500Y-108470000D03*
X156272500Y-108470000D03*
D46*
X151560000Y-92390000D03*
X151560000Y-91120000D03*
X151560000Y-89850000D03*
X151560000Y-88580000D03*
X151560000Y-87310000D03*
X151560000Y-86040000D03*
X151560000Y-84770000D03*
X151560000Y-83500000D03*
X146136000Y-83500000D03*
X146136000Y-84770000D03*
X146136000Y-86040000D03*
X146136000Y-87310000D03*
X146136000Y-88580000D03*
X146136000Y-89850000D03*
X146136000Y-91120000D03*
X146136000Y-92390000D03*
D37*
X153730000Y-84535000D03*
X153730000Y-82985000D03*
D28*
X107490000Y-97655000D03*
X107490000Y-99305000D03*
D26*
X154755000Y-125870000D03*
X156405000Y-125870000D03*
D37*
X153360000Y-127395000D03*
X153360000Y-125845000D03*
D41*
X164900000Y-134800000D03*
D42*
X164900000Y-132260000D03*
X164900000Y-129720000D03*
X164900000Y-127180000D03*
X164900000Y-124640000D03*
D14*
X132350000Y-76480000D03*
X132350000Y-74580000D03*
D50*
X128620000Y-76475000D03*
X128620000Y-75225000D03*
X128620000Y-73975000D03*
X128620000Y-72725000D03*
X126470000Y-72725000D03*
X126470000Y-73975000D03*
X126470000Y-75225000D03*
X126470000Y-76475000D03*
D12*
X138530000Y-142190000D03*
X138530000Y-144090000D03*
D14*
X159270000Y-121010000D03*
X159270000Y-119110000D03*
D51*
X135157500Y-142190000D03*
X135157500Y-141240000D03*
X135157500Y-140290000D03*
X132882500Y-140290000D03*
X132882500Y-142190000D03*
D37*
X153370000Y-116275000D03*
X153370000Y-114725000D03*
D11*
X131150000Y-142195000D03*
X131150000Y-143745000D03*
D41*
X164870000Y-94100000D03*
D42*
X164870000Y-91560000D03*
X164870000Y-89020000D03*
X164870000Y-86480000D03*
X164870000Y-83940000D03*
D27*
X131870000Y-94535000D03*
X131870000Y-92885000D03*
D26*
X155195000Y-82980000D03*
X156845000Y-82980000D03*
D27*
X156940000Y-117575000D03*
X156940000Y-115925000D03*
D40*
X155072500Y-90480000D03*
X155072500Y-92380000D03*
X156947500Y-91430000D03*
D26*
X155185000Y-84500000D03*
X156835000Y-84500000D03*
X155265000Y-97370000D03*
X156915000Y-97370000D03*
D37*
X153370000Y-130445000D03*
X153370000Y-128895000D03*
M02*
