G04 #@! TF.GenerationSoftware,KiCad,Pcbnew,(6.0.5)*
G04 #@! TF.CreationDate,2022-12-03T11:34:05+01:00*
G04 #@! TF.ProjectId,ruche,72756368-652e-46b6-9963-61645f706362,rev?*
G04 #@! TF.SameCoordinates,Original*
G04 #@! TF.FileFunction,Profile,NP*
%FSLAX46Y46*%
G04 Gerber Fmt 4.6, Leading zero omitted, Abs format (unit mm)*
G04 Created by KiCad (PCBNEW (6.0.5)) date 2022-12-03 11:34:05*
%MOMM*%
%LPD*%
G01*
G04 APERTURE LIST*
G04 #@! TA.AperFunction,Profile*
%ADD10C,0.050000*%
G04 #@! TD*
G04 APERTURE END LIST*
D10*
X169300000Y-82610000D02*
X169300000Y-73610000D01*
X101450000Y-69100000D02*
X125900000Y-69100000D01*
X88500000Y-69100000D02*
X92450000Y-69100000D01*
X92950000Y-69600000D02*
G75*
G03*
X92450000Y-69100000I-505000J-5000D01*
G01*
X93950000Y-73600000D02*
G75*
G03*
X94450000Y-74100000I500000J0D01*
G01*
X101450000Y-69100000D02*
G75*
G03*
X100950000Y-69600000I0J-500000D01*
G01*
X95400000Y-75100000D02*
G75*
G03*
X95400000Y-74100000I0J500000D01*
G01*
X93950000Y-73600000D02*
X93950000Y-69600000D01*
X93450000Y-75100000D02*
X95400000Y-75100000D01*
X100450000Y-75100000D02*
G75*
G03*
X100950000Y-74600000I0J500000D01*
G01*
X99950000Y-69600000D02*
G75*
G03*
X99450000Y-69100000I-500000J0D01*
G01*
X94450000Y-69100000D02*
G75*
G03*
X93950000Y-69600000I0J-500000D01*
G01*
X99450000Y-69100000D02*
X94450000Y-69100000D01*
X92950000Y-69600000D02*
X92950000Y-74600000D01*
X99950000Y-73600000D02*
X99950000Y-69600000D01*
X100950000Y-69600000D02*
X100950000Y-74600000D01*
X99450000Y-74100000D02*
G75*
G03*
X99950000Y-73600000I0J500000D01*
G01*
X97950000Y-74100000D02*
X99450000Y-74100000D01*
X100450000Y-75100000D02*
X97950000Y-75100000D01*
X97950000Y-74100000D02*
G75*
G03*
X97950000Y-75100000I0J-500000D01*
G01*
X92950000Y-74600000D02*
G75*
G03*
X93450000Y-75100000I500000J0D01*
G01*
X95400000Y-74100000D02*
X94450000Y-74100000D01*
X88500000Y-169010000D02*
X167300000Y-169010000D01*
X169299975Y-71110000D02*
G75*
G03*
X167300000Y-69100000I-1999975J10000D01*
G01*
X86500000Y-80390000D02*
X86500000Y-167110000D01*
X168300000Y-71610000D02*
G75*
G03*
X168300000Y-71610000I-1500000J0D01*
G01*
X90500000Y-166510000D02*
G75*
G03*
X90500000Y-166510000I-1500000J0D01*
G01*
X167300000Y-69100000D02*
X125900000Y-69100000D01*
X88500000Y-69100025D02*
G75*
G03*
X86500000Y-71110000I10000J-2009975D01*
G01*
X167300000Y-169010000D02*
G75*
G03*
X169300000Y-167110000I97500J1900000D01*
G01*
X86500000Y-167110000D02*
G75*
G03*
X88500000Y-169010000I1902500J0D01*
G01*
X168300000Y-166510000D02*
G75*
G03*
X168300000Y-166510000I-1500000J0D01*
G01*
X169300000Y-73610000D02*
X169300000Y-71110000D01*
X86500000Y-80390000D02*
X86500000Y-71110000D01*
X169300000Y-167110000D02*
X169300000Y-82610000D01*
X90500000Y-71610000D02*
G75*
G03*
X90500000Y-71610000I-1500000J0D01*
G01*
M02*
